<svg viewBox="0 0 240 240" xmlns="http://www.w3.org/2000/svg" fill="none">
  <rect x="20" y="20" width="200" height="200" rx="56" fill="#E8F3EC"/>
  <!-- ring motion arcs -->
  <path d="M80 94 C72 104 72 128 80 138" stroke="#2D6A4F" stroke-width="4.5" stroke-linecap="round" opacity="0.35"/>
  <path d="M160 94 C168 104 168 128 160 138" stroke="#2D6A4F" stroke-width="4.5" stroke-linecap="round" opacity="0.35"/>
  <!-- bell -->
  <path d="M120 76 C104 76 96 92 96 112 L96 130 C96 140 88 146 84 152 L156 152 C152 146 144 140 144 130 L144 112 C144 92 136 76 120 76 Z" fill="#2D6A4F"/>
  <circle cx="120" cy="72" r="7" fill="#2D6A4F"/>
  <circle cx="120" cy="162" r="9" fill="#2D6A4F"/>
  <!-- notification badge (warm) -->
  <circle cx="150" cy="82" r="14" fill="#F2A65A" stroke="#E8F3EC" stroke-width="4"/>
  <!-- sparkle -->
  <path d="M70 152 l2.5 7.5 l7.5 2.5 l-7.5 2.5 l-2.5 7.5 l-2.5 -7.5 l-7.5 -2.5 l7.5 -2.5 z" fill="#F2A65A"/>
</svg>
