<svg viewBox="0 0 240 240" xmlns="http://www.w3.org/2000/svg" fill="none">
  <rect x="20" y="20" width="200" height="200" rx="56" fill="#E8F3EC"/>
  <!-- steam -->
  <path d="M104 72 C98 80 110 86 104 94" stroke="#2D6A4F" stroke-width="4" stroke-linecap="round" opacity="0.4"/>
  <path d="M120 66 C114 74 126 80 120 88" stroke="#2D6A4F" stroke-width="4" stroke-linecap="round" opacity="0.4"/>
  <path d="M136 72 C130 80 142 86 136 94" stroke="#2D6A4F" stroke-width="4" stroke-linecap="round" opacity="0.4"/>
  <!-- pot body -->
  <path d="M80 118 L160 118 L154 170 C153 177 147 182 140 182 L100 182 C93 182 87 177 86 170 Z" fill="#FFFFFF" stroke="#2D6A4F" stroke-width="5" stroke-linejoin="round"/>
  <!-- handles -->
  <rect x="62" y="122" width="18" height="10" rx="5" fill="#2D6A4F"/>
  <rect x="160" y="122" width="18" height="10" rx="5" fill="#2D6A4F"/>
  <!-- lid -->
  <rect x="74" y="106" width="92" height="14" rx="7" fill="#2D6A4F"/>
  <circle cx="120" cy="102" r="5" fill="#2D6A4F"/>
  <!-- leaf (brand echo) -->
  <path d="M132 152 C132 140 144 134 158 134 C158 148 149 158 137 158 C134 158 132 156 132 152 Z" fill="#52A373"/>
  <path d="M136 154 C143 149 150 145 155 140" stroke="#FFFFFF" stroke-width="2.5" stroke-linecap="round"/>
  <!-- accent tomato -->
  <circle cx="104" cy="152" r="10" fill="#F2A65A"/>
  <path d="M104 143 l0 -4 M100 140 l4 3 l4 -3" stroke="#2D6A4F" stroke-width="2.5" stroke-linecap="round" stroke-linejoin="round"/>
  <!-- sparkle -->
  <path d="M172 158 l2.5 7.5 l7.5 2.5 l-7.5 2.5 l-2.5 7.5 l-2.5 -7.5 l-7.5 -2.5 l7.5 -2.5 z" fill="#F2A65A"/>
</svg>
