<svg viewBox="0 0 240 240" xmlns="http://www.w3.org/2000/svg" fill="none">
  <rect x="20" y="20" width="200" height="200" rx="56" fill="#E8F3EC"/>
  <!-- fridge body -->
  <rect x="90" y="54" width="60" height="128" rx="14" fill="#FFFFFF" stroke="#2D6A4F" stroke-width="5"/>
  <line x1="90" y1="98" x2="150" y2="98" stroke="#2D6A4F" stroke-width="5"/>
  <line x1="137" y1="68" x2="137" y2="86" stroke="#2D6A4F" stroke-width="5" stroke-linecap="round"/>
  <line x1="137" y1="108" x2="137" y2="132" stroke="#2D6A4F" stroke-width="5" stroke-linecap="round"/>
  <!-- date tag (warm accent) -->
  <g transform="rotate(-10 165 66)">
    <rect x="146" y="52" width="44" height="28" rx="7" fill="#F2A65A"/>
    <circle cx="154" cy="60" r="3" fill="#FFFFFF"/>
    <line x1="162" y1="61" x2="182" y2="61" stroke="#FFFFFF" stroke-width="4" stroke-linecap="round"/>
    <line x1="154" y1="71" x2="178" y2="71" stroke="#FFFFFF" stroke-width="4" stroke-linecap="round"/>
  </g>
  <!-- check badge -->
  <circle cx="150" cy="162" r="18" fill="#2D6A4F"/>
  <path d="M142 162 l6 6 l10 -12" stroke="#FFFFFF" stroke-width="4.5" stroke-linecap="round" stroke-linejoin="round"/>
  <!-- sparkle signature -->
  <path d="M66 86 l3 9 l9 3 l-9 3 l-3 9 l-3 -9 l-9 -3 l9 -3 z" fill="#F2A65A"/>
</svg>
